# xmcd
#
# Track frame offsets:
#  150
#  14075
#  27030
#  41677
#  58897
#  69930
#  91152
#  108917
#  135117
#  153650
#  175012
#  196830
#  205977
#  234917
#  253495
#  269142
#
# Disc length: 3748 seconds
#
# Revision: 0
# Processed by: cddbd v1.4PL0 Copyright (c) Steve Scherf et al.
# Submitted via: AltoMP3_Maker 3.0
#
DISCID=dc0ea210
DTITLE=Charles Aznavour - I classici di Aznavour
DYEAR=1900
DGENRE=
TTITLE0=Come le rose
TTITLE1=Com'è triste venezia
TTITLE2=Il ricordo di te
TTITLE3=Io t'amerò
TTITLE4=Lei
TTITLE5=L'istrione
TTITLE6=Morire d'amore
TTITLE7=Quel che non si fa più
TTITLE8=Te contro me
TTITLE9=Questa giovinezza
TTITLE10=Ave Maria
TTITLE11=Dopo l'amore
TTITLE12=Non mi scorderò mai
TTITLE13=Buon anniversario
TTITLE14=Ti lasci andare
TTITLE15=Mio commovente amore
EXTD=
EXTT0=
EXTT1=
EXTT2=
EXTT3=
EXTT4=
EXTT5=
EXTT6=
EXTT7=
EXTT8=
EXTT9=
EXTT10=
EXTT11=
EXTT12=
EXTT13=
EXTT14=
EXTT15=
PLAYORDER=
